{"title":"Living Death 2006 DVDRip Xvid BigPerm LKRG","uid":6412340,"size":1042398041,"categoryP":"video","categoryS":"movies","magnet":"?xt=urn:btih:b51ff0bd9c45637aa756eeec5e0227e1cb668100&amp;dn=Living+Death+2006+DVDRip+Xvid+BigPerm+LKRG&amp;tr=udp%3A%2F%2Ftracker.openbittorrent.com%3A80&amp;tr=udp%3A%2F%2Fopen.demonii.com%3A1337&amp;tr=udp%3A%2F%2Ftracker.coppersurfer.tk%3A6969&amp;tr=udp%3A%2F%2Fexodus.desync.com%3A6969","seeders":0,"leechers":1,"uploader":"hiest","files":-1,"time":1306040962,"description":" ##       ##    ## ########   ######   \n ##       ##   ##  ##     ## ##    ##  \n ##       ##  ##   ##     ## ##        \n ##       #####    ########  ##   #### \n ##       ##  ##   ##   ##   ##    ##  \n ##       ##   ##  ##    ##  ##    ##  \n ######## ##    ## ##     ##  ######   \n\n NFO:\n\n Encoded By .......: BigPerm1828\n Runtime ..........: 1h 24mn\n File Size ........: 999 MB\n Resolution .......: 704x396\n Language .........: English\n \n IMDb\n &lt;a href=&quot; http://www.imdb.com/title/tt0892074&quot; rel=&quot;nofollow&quot; target=&quot;_NEW&quot;&gt; http://www.imdb.com/title/tt0892074&lt;/a&gt;\n \n Video\n ID : 0\n Format : MPEG-4 Visual\n Format profile : Advanced Simple@L5\n Format settings, BVOP : Yes\n Format settings, QPel : No\n Format settings, GMC : No warppoints\n Format settings, Matrix : Default (H.263)\n Codec ID : XVID\n Codec ID/Hint : XviD\n Duration : 1h 24mn\n Bit rate : 1 190 Kbps\n Width : 704 pixels\n Height : 396 pixels\n Display aspect ratio : 16:9\n Frame rate : 29.970 fps\n Color space : YUV\n Chroma subsampling : 4:2:0\n Bit depth : 8 bits\n Scan type : Progressive\n Compression mode : Lossy\n Bits/(Pixel*Frame) : 0.142\n Stream size : 724 MiB (72%)\n Writing library : XviD 1.2.1 (UTC 2008-12-04)\n\n Audio\n ID : 1\n Format : AC-3\n Format/Info : Audio Coding 3\n Mode extension : CM (complete main)\n Codec ID : 2000\n Duration : 1h 24mn\n Bit rate mode : Constant\n Bit rate : 448 Kbps\n Channel(s) : 6 channels\n Channel positions : Front: L C R, Side: L R, LFE\n Sampling rate : 48.0 KHz\n Bit depth : 16 bits\n Compression mode : Lossy\n Video delay : 33ms\n Stream size : 272 MiB (27%)\n Alignment : Split accross interleaves\n Interleave, duration : 500 ms (14.98 video frames)\n Interleave, preload duration : 500 ms\n\n \n\n\n \n\n\n ----------------------------------                            \n &lt;a href=&quot; http://thepiratebay.se/user/hiest&quot; rel=&quot;nofollow&quot; target=&quot;_NEW&quot;&gt; http://thepiratebay.se/user/hiest&lt;/a&gt;\n ----------------------------------\n\n\n\n\n\n\n\n Screen Shots:\n\n &lt;a href=&quot; http://leetleech.org/images/92258696070127443969.png&quot; rel=&quot;nofollow&quot; target=&quot;_NEW&quot;&gt; http://leetleech.org/images/92258696070127443969.png&lt;/a&gt;\n\n &lt;a href=&quot; http://leetleech.org/images/98894978560196971190.png&quot; rel=&quot;nofollow&quot; target=&quot;_NEW&quot;&gt; http://leetleech.org/images/98894978560196971190.png&lt;/a&gt;\n\n &lt;a href=&quot; http://leetleech.org/images/35491837803674995706.png&quot; rel=&quot;nofollow&quot; target=&quot;_NEW&quot;&gt; http://leetleech.org/images/35491837803674995706.png&lt;/a&gt;\n\n &lt;a href=&quot; http://leetleech.org/images/22077457867150392735.png&quot; rel=&quot;nofollow&quot; target=&quot;_NEW&quot;&gt; http://leetleech.org/images/22077457867150392735.png&lt;/a&gt;\n\n ##       ##    ## ########   ######   \n ##       ##   ##  ##     ## ##    ##  \n ##       ##  ##   ##     ## ##        \n ##       #####    ########  ##   #### \n ##       ##  ##   ##   ##   ##    ##  \n ##       ##   ##  ##    ##  ##    ##  \n ######## ##    ## ##     ##  ######   \n","torrent":{"xt":"urn:btih:b51ff0bd9c45637aa756eeec5e0227e1cb668100","amp;dn":"Living+Death+2006+DVDRip+Xvid+BigPerm+LKRG","amp;tr":["udp%3A%2F%2Ftracker.openbittorrent.com%3A80","udp%3A%2F%2Fopen.demonii.com%3A1337","udp%3A%2F%2Ftracker.coppersurfer.tk%3A6969","udp%3A%2F%2Fexodus.desync.com%3A6969"],"infoHash":"b51ff0bd9c45637aa756eeec5e0227e1cb668100","infoHashBuffer":{"type":"Buffer","data":[181,31,240,189,156,69,99,122,167,86,238,236,94,2,39,225,203,102,129,0]},"announce":[],"urlList":[]}}